<?xml version="1.0" encoding="utf-8"?>
<!-- Generator: Adobe Illustrator 26.1.0, SVG Export Plug-In . SVG Version: 6.00 Build 0)  -->
<svg version="1.1" id="Layer_1" xmlns="http://www.w3.org/2000/svg" xmlns:xlink="http://www.w3.org/1999/xlink" x="0px" y="0px"
	 viewBox="0 0 532.47986 90" style="enable-background:new 0 0 532.47986 90;" xml:space="preserve">
<style type="text/css">
	.st0{fill:#2A2859;}
</style>
<g>
	<path id="XMLID_00000117665231939790469060000000050896641076176799_" class="st0" d="M141.7765,26.96936
		c2.82906,2.46292,4.24747,6.06793,4.24747,10.82466h-9.24081c0-2.31599-0.66248-4.10692-1.9859-5.36532
		c-1.32071-1.26045-3.22406-1.89339-5.70233-1.89339c-2.02647,0-3.65781,0.44803-4.90042,1.33446
		c-1.23882,0.89173-1.85844,2.05611-1.85844,3.50363c0,1.12002,0.30954,2.02549,0.92916,2.72918
		c0.61606,0.70261,1.58969,1.31326,2.91301,1.83204c1.32288,0.51674,3.24527,1.08194,5.76791,1.70221
		c3.43384,0.86533,6.19949,1.74646,8.31154,2.63397c2.1089,0.89281,3.83275,2.22522,5.17674,4.00241
		c1.34343,1.7761,2.01489,4.1713,2.01489,7.19098c0,2.7704-0.72382,5.21104-2.17027,7.32211
		c-1.44589,2.10469-3.47247,3.74026-6.07744,4.89619c-2.60498,1.158-5.60194,1.73705-8.99089,1.73705
		c-5.58139,0-9.95349-1.3482-13.11848-4.03194c-3.1613-2.6858-4.74354-6.5085-4.74354-11.47653h9.42735
		c0,2.69218,0.72424,4.71443,2.1723,6.07951c1.44439,1.36303,3.57331,2.04984,6.38916,2.04984
		c2.31015,0,4.16135-0.50721,5.54807-1.51514c1.38617-1.01854,2.073-2.39638,2.073-4.13126
		c0-1.24044-0.30804-2.22089-0.92929-2.94568c-0.61963-0.72273-1.50768-1.28696-2.66103-1.70113
		c-1.16222-0.41417-3.00064-0.95514-5.52371-1.6123c-3.5956-0.91402-6.44888-1.80262-8.55724-2.6647
		c-2.10524-0.8728-3.85549-2.18184-5.24015-3.93998c-1.38454-1.75923-2.07505-4.14609-2.07505-7.16361
		c0-2.5643,0.68303-4.83701,2.04497-6.82236c1.36249-1.98319,3.28812-3.52473,5.76834-4.62041
		c2.4798-1.09568,5.30885-1.63978,8.49602-1.63978C134.77878,23.28407,138.94389,24.50969,141.7765,26.96936z"/>
	<path id="XMLID_00000145755829972007517230000014546452352055560327_" class="st0" d="M151.41678,32.95171v-8.6755h8.68448v8.6755
		H151.41678z M151.41678,68.42212V36.92653h8.68448v31.49559H151.41678z"/>
	<path id="XMLID_00000171719330111115138880000001380706890144780962_" class="st0" d="M184.22249,37.29634v7.50074
		c-1.11635-0.20502-2.02658-0.30749-2.72865-0.30749c-2.64565,0-4.66855,0.81567-6.07961,2.44702
		c-1.40306,1.63881-2.10469,4.00446-2.10469,7.10129v14.38423h-8.68082V36.92653h7.99779v4.95754h0.12312
		c1.03378-1.69582,2.26526-2.94254,3.69113-3.75194c1.42589-0.80301,3.06772-1.2056,4.92995-1.2056
		C182.40298,36.92653,183.35294,37.04597,184.22249,37.29634z"/>
	<path id="XMLID_00000029738586841208377020000009197198589778100670_" class="st0" d="M231.01244,39.46767
		c1.96317,2.19135,2.94362,5.3928,2.94362,9.61062v19.34382h-8.6808V49.94471c0-2.31816-0.4343-4.04676-1.30383-5.20682
		c-0.86426-1.15702-2.08458-1.73911-3.65999-1.73911c-1.85638,0-3.28378,0.79869-4.27493,2.38783
		c-0.99106,1.59542-1.49081,3.87864-1.49081,6.85299v16.18251h-8.67874v-19.0332c0-2.02647-0.42792-3.59344-1.27106-4.71237
		c-0.84944-1.11992-2.07925-1.67776-3.69276-1.67776c-1.85692,0-3.28595,0.79869-4.27699,2.38783
		c-0.99106,1.59542-1.48918,3.87864-1.48918,6.85299v16.18251h-8.67929V36.92653h8.18323v3.59343h0.12463
		c1.15691-1.48863,2.43695-2.58431,3.84065-3.28378c1.41052-0.70586,3.04404-1.05976,4.90355-1.05976
		c2.19136,0,4.0816,0.45539,5.67389,1.3693c1.58905,0.90763,2.8231,2.25053,3.6906,4.0287
		c1.23935-1.77816,2.64252-3.12106,4.21468-4.0287c1.57217-0.91391,3.51424-1.3693,5.83229-1.3693
		C226.35091,36.17642,229.04515,37.2774,231.01244,39.46767z"/>
	<path id="XMLID_00000104663931643316655960000015757257519641038005_" class="st0" d="M265.46008,59.80894v-5.83023v-5.58722
		c0-4.12802-1.13895-7.24075-3.41165-9.3264c-2.27274-2.08781-5.64319-3.13166-10.10617-3.13166
		c-4.3035,0-7.61055,1.01215-9.92448,3.03872c-2.31392,2.02225-3.55643,4.62777-3.72121,7.81126h8.43564
		c0.08136-1.4855,0.56747-2.65734,1.45499-3.50471c0.89172-0.84315,2.14267-1.2689,3.75507-1.2689
		c1.6123,0,2.86963,0.45322,3.7804,1.36616c0.90872,0.90656,1.36615,2.30972,1.36615,4.21046v1.11991
		c-2.6055,0.16694-5.2332,0.45441-7.87886,0.86858c-4.37956,0.70575-7.51231,1.88073-9.39401,3.53533
		c-1.87651,1.65244-2.81898,3.82053-2.81898,6.5085c0,2.77668,0.96779,5.05253,2.91191,6.85504
		c1.94522,1.79829,4.54857,2.69857,7.81548,2.69857c3.97495,0,7.09177-1.29118,9.36447-3.86716v3.11694h8.37128
		C265.46008,68.42212,265.46008,63.36115,265.46008,59.80894z M256.71588,58.78186
		c-0.24722,0.88762-0.72804,1.68425-1.42642,2.38794c-0.5822,0.57895-1.31326,1.02697-2.20509,1.3376
		c-0.8886,0.30857-1.80673,0.46696-2.7545,0.46696c-1.48973,0-2.63928-0.3698-3.44446-1.09037
		c-0.80724-0.72057-1.20549-1.68631-1.20549-2.88444c0-1.24466,0.38776-2.19136,1.17703-2.85274
		c0.78181-0.65717,2.08456-1.15594,3.90611-1.4855c1.73489-0.28952,3.8439-0.51781,6.32574-0.68259v1.17488
		C257.08881,56.68777,256.96201,57.89434,256.71588,58.78186z"/>
	<path class="st0" d="M45.00002,0C20.1472,0,0,20.1472,0,45.00002C0,69.85281,20.1472,90,45.00002,90
		s45.00002-20.14719,45.00002-45.00002C90.00004,20.1472,69.85284,0,45.00002,0z M43.48626,79.89581
		c-0.9409,2.13226-3.83172,4.1247-9.4236,3.21664c-11.97511-1.94756-18.47924-8.71308-22.25935-13.67891
		c-5.16614-6.78668-7.98867-15.36782-7.98867-24.52221c0-4.14431,0.61602-8.146,1.74605-11.92889
		c1.2662,17.14882,21.91641,29.38411,27.63066,32.611c2.40502,1.35882,4.48172,2.53176,6.40456,4.09034
		C43.59402,72.9319,44.75615,77.00037,43.48626,79.89581z M56.80868,24.40656c-2.40502-1.35882-4.48172-2.53176-6.40453-4.09034
		c-3.9981-3.24812-5.16027-7.31663-3.89037-10.21206c0.9409-2.13225,3.83172-4.12466,9.4236-3.21661
		c11.97511,1.94756,18.47924,8.71305,22.25934,13.67891c5.16615,6.78668,7.98867,15.36782,7.98867,24.52221
		c0,4.14431-0.61603,8.146-1.74605,11.92889C83.17315,39.86869,62.52293,27.63345,56.80868,24.40656z"/>
	<g>
		<g>
			<path class="st0" d="M289.22559,54.00351l-5.55209,14.34864h-4.36707l17.59262-44.41922h5.55258l17.53067,44.41922h-4.36707
				l-5.55258-14.34864H289.22559z M306.8187,45.64341l-7.11215-18.4041h-0.12485l-0.74857,1.93409
				c-2.16281,5.69891-4.28418,11.18857-6.36359,16.47l-1.80923,4.61676h17.90521L306.8187,45.64341z"/>
			<path class="st0" d="M346.21518,39.09306c2.34906,2.16281,3.66992,4.99079,3.96106,8.48444h-4.05496
				c-0.20874-2.45345-1.12311-4.46045-2.74509-6.02051c-1.62198-1.55956-3.63947-2.33909-6.05145-2.33909
				c-3.16107,0-5.64597,1.18502-7.45523,3.55607c-1.80923,2.37055-2.71362,5.61451-2.71362,9.73189
				c0,4.15932,0.90439,7.41427,2.71362,9.76385c1.80927,2.35008,4.29416,3.52462,7.45523,3.52462
				c2.37103,0,4.37704-0.84245,6.02051-2.52686c1.64246-1.68441,2.56729-3.75283,2.77603-6.20728h4.05496
				c-0.20825,2.28765-0.86343,4.34659-1.96506,6.17631c-1.10263,1.83072-2.58878,3.27542-4.46045,4.33561
				c-1.87167,1.06068-4.01401,1.59102-6.42599,1.59102c-4.45096,0-7.9541-1.48665-10.51193-4.46045
				c-2.5578-2.9733-3.83673-7.03924-3.83673-12.19682c0-5.15659,1.27893-9.22252,3.83673-12.19632
				c2.55783-2.9733,6.06097-4.46045,10.51193-4.46045C340.90128,35.8491,343.86459,36.93075,346.21518,39.09306z"/>
			<path class="st0" d="M377.40784,38.9058c2.1004,2.03846,3.15109,5.07468,3.15109,9.10816v12.5399
				c0,2.99477,0.22772,5.59454,0.68616,7.79829h-3.6185c-0.29166-1.41324-0.43646-3.01525-0.43646-4.80352h-0.12485
				c-2.1633,3.618-5.92664,5.42725-11.29196,5.42725c-3.203,0-5.79279-0.85194-7.76782-2.55782
				c-1.97552-1.70488-2.96332-3.88816-2.96332-6.55035c0-2.70314,0.90488-4.8245,2.71414-6.36358
				c1.80972-1.53809,4.91788-2.66119,9.32639-3.36881c3.03622-0.49888,6.28018-0.87341,9.73288-1.1231v-1.49714
				c0-2.82798-0.72809-4.92837-2.18329-6.30116c-1.45718-1.37229-3.43173-2.05844-5.92661-2.05844
				c-2.5798,0-4.57632,0.63421-5.98956,1.90263c-1.41425,1.26942-2.18329,2.98478-2.30811,5.14709h-4.05548
				c0.20776-3.07767,1.38229-5.57307,3.52512-7.48668c2.14136-1.91262,5.08469-2.86943,8.82803-2.86943
				C372.40607,35.8491,375.30746,36.86833,377.40784,38.9058z M367.58209,53.37928
				c-3.11914,0.45843-5.30243,1.16505-6.55087,2.12136c-1.24744,0.95731-1.87067,2.3296-1.87067,4.11737
				c0,1.87167,0.65421,3.35932,1.96457,4.46045c1.31036,1.10263,3.12909,1.65344,5.4592,1.65344
				c1.4552,0,2.8165-0.2387,4.08591-0.71761c1.26843-0.47741,2.34009-1.17454,3.21301-2.0899
				c1.12259-1.16355,1.89163-2.31812,2.30814-3.46219c0.41547-1.14357,0.62421-2.7346,0.62421-4.77256v-2.43297
				C374.11096,52.46492,371.03378,52.83945,367.58209,53.37928z"/>
			<path class="st0" d="M410.60355,68.35215v-4.80352h-0.12485c-0.83298,1.66393-2.14334,2.99427-3.93112,3.99253
				c-1.78775,0.99825-3.80527,1.49714-6.05145,1.49714c-2.70364,0-5.06369-0.67616-7.0802-2.02748
				c-2.01849-1.35081-3.56656-3.28491-4.64822-5.80178c-1.08163-2.51587-1.62198-5.43773-1.62198-8.76559
				c0-3.32686,0.54034-6.24822,1.62198-8.76509c1.08167-2.51587,2.62973-4.44996,4.64822-5.80178
				c2.01651-1.35132,4.37656-2.02748,7.0802-2.02748c2.24619,0,4.2637,0.49888,6.05145,1.49714
				c1.78778,0.99826,3.09814,2.3296,3.93112,3.99253h0.12485V23.93293h3.86719v44.41922H410.60355z M393.88336,42.71156
				c-1.78879,2.4125-2.68268,5.65646-2.68268,9.73189c0,4.07693,0.89389,7.32089,2.68268,9.73239
				c1.78775,2.4125,4.20074,3.6185,7.23697,3.6185c2.95233,0,5.30341-1.21648,7.05023-3.64946
				c1.74683-2.43347,2.61975-5.66645,2.61975-9.70143c0-4.03348-0.87292-7.26796-2.61975-9.70093s-4.0979-3.64946-7.05023-3.64946
				C398.08411,39.09306,395.67111,40.29956,393.88336,42.71156z"/>
			<path class="st0" d="M442.08337,63.95412c1.62198-1.26842,2.68265-2.94234,3.18103-5.02225h3.99304
				c-0.54132,2.91138-1.96558,5.34484-4.27368,7.29892c-2.30814,1.95557-5.35535,2.93235-9.13965,2.93235
				c-4.49139,0-8.02701-1.54907-10.60577-4.64771c-2.5788-3.09815-3.86719-7.28843-3.86719-12.57086
				c0-3.11912,0.57129-5.89566,1.71484-8.32864c1.14359-2.43297,2.78653-4.33561,4.92886-5.7084
				c2.14136-1.37229,4.66821-2.05844,7.57959-2.05844c3.53458,0,6.47794,0.99776,8.828,2.99427
				c2.34909,1.99651,3.87817,4.76307,4.5853,8.29717c0.33258,1.49764,0.49939,3.5356,0.49939,6.11389h-24.2059
				c0.08292,4.07693,1.10165,7.19604,3.05722,9.35836c1.95456,2.16281,4.44946,3.24397,7.48566,3.24397
				C438.38098,65.85676,440.4614,65.22305,442.08337,63.95412z M428.42038,42.08733
				c-1.87167,1.95557-2.89142,4.61676-3.05722,7.98557h20.40063c-0.20874-3.45171-1.22748-6.13437-3.05719-8.04799
				c-1.83075-1.91212-4.20078-2.86943-7.11215-2.86943S430.29205,40.13327,428.42038,42.08733z"/>
			<path class="st0" d="M497.45047,39.18644c1.76678,2.14283,2.6517,5.31389,2.6517,9.51416v19.65155h-3.86819V48.94979
				c0-3.49365-0.59326-5.96758-1.7778-7.42376c-1.18552-1.45519-2.96329-2.18378-5.33435-2.18378
				c-2.53784,0-4.57532,0.93584-6.1134,2.80751c-1.54007,1.87167-2.30911,4.34659-2.30911,7.42426v18.77813h-3.86719V47.95204
				c0-2.70314-0.62424-4.81351-1.87167-6.33262c-1.24844-1.51761-2.99527-2.27717-5.24048-2.27717
				c-2.53784,0-4.57629,0.97778-6.11438,2.93235c-1.53909,1.95557-2.30814,4.55433-2.30814,7.7983v18.27925h-3.86819V36.66009
				h3.86819v4.11738h0.12485c2.28714-3.20201,5.24048-4.80402,8.85898-4.80402c2.16229,0,4.07593,0.55182,5.73984,1.65344
				c1.66293,1.10263,2.8894,2.6512,3.68042,4.64772c0.99777-2.03746,2.34909-3.59702,4.05496-4.67918
				c1.7049-1.08065,3.70139-1.62198,5.98956-1.62198C493.11487,35.97344,495.68167,37.04511,497.45047,39.18644z"/>
			<path class="st0" d="M516.07227,76.21287c-1.0816,1.45519-2.30811,2.47392-3.68042,3.05669
				c-1.37225,0.58228-3.11908,0.87341-5.24045,0.87341c-0.91586,0-1.68491-0.0834-2.30814-0.24919v-3.43123
				c0.62323,0.1653,1.37228,0.24919,2.24521,0.24919c1.58005,0,2.84845-0.21823,3.80627-0.65469
				c0.95581-0.43696,1.79776-1.23796,2.52585-2.40201c0.72711-1.16505,1.54907-2.93235,2.4649-5.3029l-12.47745-31.69206h4.17981
				l10.29416,26.76369h0.12488l10.29315-26.76369h4.17981l-13.10071,33.1892
				C518.25555,72.63532,517.15393,74.75668,516.07227,76.21287z"/>
		</g>
	</g>
</g>
</svg>
